<svg width="785" height="281" viewBox="0 0 785 281" fill="none" xmlns="http://www.w3.org/2000/svg"><rect x="25" y="25" width="735" height="231" rx="115.5" fill="black" stroke="url(#paint0_linear)" stroke-width="50"/><path d="M224.576 140.918C224.576 147.852 223.29 153.988 220.719 159.326C218.147 164.665 214.485 168.783 209.732 171.68C205.012 174.544 199.625 175.977 193.57 175.977C187.516 175.977 182.145 174.593 177.457 171.826C172.77 169.027 169.107 165.039 166.471 159.863C163.867 154.688 162.499 148.747 162.369 142.041V138.037C162.369 131.071 163.639 124.935 166.178 119.629C168.749 114.29 172.411 110.173 177.164 107.275C181.949 104.378 187.385 102.93 193.473 102.93C199.495 102.93 204.866 104.362 209.586 107.227C214.306 110.091 217.968 114.176 220.572 119.482C223.209 124.756 224.544 130.811 224.576 137.646V140.918ZM207.145 137.939C207.145 130.876 205.956 125.521 203.58 121.875C201.236 118.197 197.867 116.357 193.473 116.357C184.879 116.357 180.338 122.803 179.85 135.693L179.801 140.918C179.801 147.884 180.956 153.239 183.268 156.982C185.579 160.726 189.013 162.598 193.57 162.598C197.9 162.598 201.236 160.758 203.58 157.08C205.924 153.402 207.112 148.112 207.145 141.211V137.939ZM292.789 175H275.748L250.553 130.762V175H233.414V103.906H250.553L275.699 148.145V103.906H292.789V175ZM320.768 161.816H350.602V175H303.629V103.906H320.768V161.816ZM370.182 134.766L383.268 103.906H401.773L378.873 149.463V175H361.49V149.463L338.639 103.906H357.047L370.182 134.766ZM458.268 149.902H448.99V175H431.852V103.906H459.83C468.261 103.906 474.853 105.778 479.605 109.521C484.358 113.265 486.734 118.555 486.734 125.391C486.734 130.339 485.725 134.44 483.707 137.695C481.721 140.951 478.596 143.587 474.332 145.605L489.176 174.268V175H470.816L458.268 149.902ZM448.99 136.67H459.83C463.085 136.67 465.527 135.824 467.154 134.131C468.814 132.406 469.645 130.013 469.645 126.953C469.645 123.893 468.814 121.501 467.154 119.775C465.494 118.018 463.053 117.139 459.83 117.139H448.99V136.67ZM555.289 166.211C552.652 169.141 548.795 171.501 543.717 173.291C538.639 175.081 533.072 175.977 527.018 175.977C517.708 175.977 510.27 173.128 504.703 167.432C499.137 161.735 496.158 153.809 495.768 143.652L495.719 137.5C495.719 130.501 496.956 124.398 499.43 119.189C501.904 113.949 505.436 109.928 510.025 107.129C514.648 104.297 519.986 102.881 526.041 102.881C534.895 102.881 541.764 104.915 546.646 108.984C551.562 113.021 554.426 119.059 555.24 127.1H538.736C538.15 123.128 536.881 120.296 534.928 118.604C532.975 116.911 530.208 116.064 526.627 116.064C522.33 116.064 519.01 117.887 516.666 121.533C514.322 125.179 513.134 130.387 513.102 137.158V141.455C513.102 148.551 514.306 153.89 516.715 157.471C519.156 161.019 522.981 162.793 528.189 162.793C532.649 162.793 535.969 161.8 538.15 159.814V148.779H526.236V137.012H555.289V166.211ZM565.25 175V103.906H590.787C599.934 103.906 606.884 105.583 611.637 108.936C616.422 112.288 618.814 117.155 618.814 123.535C618.814 127.214 617.968 130.355 616.275 132.959C614.583 135.563 612.092 137.484 608.805 138.721C612.516 139.697 615.364 141.52 617.35 144.189C619.335 146.859 620.328 150.114 620.328 153.955C620.328 160.921 618.115 166.162 613.688 169.678C609.293 173.161 602.766 174.935 594.107 175H565.25ZM582.389 144.775V161.816H593.619C596.712 161.816 599.088 161.117 600.748 159.717C602.408 158.285 603.238 156.283 603.238 153.711C603.238 147.786 600.292 144.808 594.4 144.775H582.389ZM582.389 133.545H591.324C595.068 133.512 597.737 132.829 599.332 131.494C600.927 130.16 601.725 128.19 601.725 125.586C601.725 122.591 600.862 120.443 599.137 119.141C597.411 117.806 594.628 117.139 590.787 117.139H582.389V133.545Z" fill="white"/><defs><linearGradient id="paint0_linear" x1="50" y1="50" x2="686.129" y2="338.688" gradientUnits="userSpaceOnUse"><stop stop-color="#F11616"/><stop offset="0.53125" stop-color="#857AFF"/><stop offset="1" stop-color="#00F0FF"/></linearGradient></defs></svg>