<svg width="344" height="100" viewBox="0 0 344 100" fill="none" xmlns="http://www.w3.org/2000/svg">
<rect x="10" y="10" width="324" height="80" rx="40" fill="black" stroke="url(#paint0_linear_1_7)" stroke-width="20"/>
<path d="M77.9375 58.7266H89.8711V64H71.082V35.5625H77.9375V58.7266ZM110.398 51.9492H99.6172V58.7266H112.352V64H92.7617V35.5625H112.391V40.8555H99.6172V46.8516H110.398V51.9492ZM137.859 40.8555H129.324V64H122.469V40.8555H114.09V35.5625H137.859V40.8555ZM140.77 64V35.5625H149.93C152.443 35.5625 154.702 36.1354 156.707 37.2812C158.712 38.4141 160.275 40.0221 161.395 42.1055C162.527 44.1758 163.1 46.5 163.113 49.0781V50.3867C163.113 52.9909 162.56 55.3281 161.453 57.3984C160.359 59.4557 158.81 61.0703 156.805 62.2422C154.812 63.401 152.586 63.987 150.125 64H140.77ZM147.625 40.8555V58.7266H150.008C151.974 58.7266 153.484 58.0299 154.539 56.6367C155.594 55.2305 156.121 53.1471 156.121 50.3867V49.1562C156.121 46.4089 155.594 44.3385 154.539 42.9453C153.484 41.5521 151.948 40.8555 149.93 40.8555H147.625ZM184.266 51.9492H173.484V58.7266H186.219V64H166.629V35.5625H186.258V40.8555H173.484V46.8516H184.266V51.9492ZM200.047 56.2656L205.711 35.5625H213.367L203.797 64H196.297L186.805 35.5625H194.402L200.047 56.2656ZM215.008 57.6133C216.049 57.6133 216.915 57.9258 217.605 58.5508C218.296 59.1628 218.641 59.9505 218.641 60.9141C218.641 61.8776 218.296 62.6719 217.605 63.2969C216.915 63.9089 216.049 64.2148 215.008 64.2148C213.953 64.2148 213.081 63.9023 212.391 63.2773C211.714 62.6523 211.375 61.8646 211.375 60.9141C211.375 59.9635 211.714 59.1758 212.391 58.5508C213.081 57.9258 213.953 57.6133 215.008 57.6133ZM246.355 54.3711C246.264 56.3503 245.73 58.1016 244.754 59.625C243.777 61.1354 242.404 62.3073 240.633 63.1406C238.875 63.974 236.863 64.3906 234.598 64.3906C230.861 64.3906 227.918 63.1732 225.77 60.7383C223.621 58.3034 222.547 54.8659 222.547 50.4258V49.0195C222.547 46.2331 223.029 43.7982 223.992 41.7148C224.969 39.6185 226.368 38.0039 228.191 36.8711C230.014 35.7253 232.124 35.1523 234.52 35.1523C237.97 35.1523 240.743 36.0638 242.84 37.8867C244.936 39.6966 246.128 42.1966 246.414 45.3867H239.578C239.526 43.6549 239.09 42.4115 238.27 41.6562C237.449 40.901 236.199 40.5234 234.52 40.5234C232.814 40.5234 231.564 41.1615 230.77 42.4375C229.975 43.7135 229.559 45.7513 229.52 48.5508V50.5625C229.52 53.5964 229.897 55.7643 230.652 57.0664C231.421 58.3685 232.736 59.0195 234.598 59.0195C236.173 59.0195 237.378 58.6484 238.211 57.9062C239.044 57.1641 239.487 55.9857 239.539 54.3711H246.355ZM273.68 50.3672C273.68 53.1406 273.165 55.5951 272.137 57.7305C271.108 59.8659 269.643 61.513 267.742 62.6719C265.854 63.8177 263.699 64.3906 261.277 64.3906C258.855 64.3906 256.707 63.8372 254.832 62.7305C252.957 61.6107 251.492 60.0156 250.438 57.9453C249.396 55.875 248.849 53.4987 248.797 50.8164V49.2148C248.797 46.4284 249.305 43.974 250.32 41.8516C251.349 39.7161 252.814 38.069 254.715 36.9102C256.629 35.7513 258.803 35.1719 261.238 35.1719C263.647 35.1719 265.796 35.7448 267.684 36.8906C269.572 38.0365 271.036 39.6706 272.078 41.793C273.133 43.9023 273.667 46.3242 273.68 49.0586V50.3672ZM266.707 49.1758C266.707 46.3503 266.232 44.2083 265.281 42.75C264.344 41.2786 262.996 40.543 261.238 40.543C257.801 40.543 255.984 43.1211 255.789 48.2773L255.77 50.3672C255.77 53.1536 256.232 55.2956 257.156 56.793C258.081 58.2904 259.454 59.0391 261.277 59.0391C263.009 59.0391 264.344 58.3034 265.281 56.832C266.219 55.3607 266.694 53.2448 266.707 50.4844V49.1758Z" fill="white"/>
<defs>
<linearGradient id="paint0_linear_1_7" x1="20" y1="20" x2="268.663" y2="171.079" gradientUnits="userSpaceOnUse">
<stop stop-color="#F11616"/>
<stop offset="0.53125" stop-color="#857AFF"/>
<stop offset="1" stop-color="#00F0FF"/>
</linearGradient>
</defs>
</svg>
